<!DOCTYPE svg PUBLIC "-//W3C//DTD SVG 1.1//EN" "http://www.w3.org/Graphics/SVG/1.1/DTD/svg11.dtd">
<!-- Uploaded to: SVG Repo, www.svgrepo.com, Transformed by: SVG Repo Mixer Tools -->
<svg width="210px" height="210px" viewBox="-4.8 -4.8 57.60 57.60" xmlns="http://www.w3.org/2000/svg" fill="#fff" stroke="#fff" stroke-width="0.00048000000000000007">
<g id="SVGRepo_bgCarrier" stroke-width="0"/>
<g id="SVGRepo_iconCarrier"> <title>add-circle-solid</title> <g id="Layer_2" data-name="Layer 2"> <g id="invisible_box" data-name="invisible box"> <rect width="48" height="48" fill="none"/> <rect width="48" height="48" fill="none"/> <rect width="48" height="48" fill="none"/> </g> <g id="icons_Q2" data-name="icons Q2"> <path d="M24,2A22,22,0,1,0,46,24,21.9,21.9,0,0,0,24,2ZM34,26H26v8a2,2,0,0,1-4,0V26H14a2,2,0,0,1,0-4h8V14a2,2,0,0,1,4,0v8h8a2,2,0,0,1,0,4Z"/> </g> </g> </g>
</svg>